<svg width="21" height="23" viewBox="0 0 21 23" fill="none" xmlns="http://www.w3.org/2000/svg">
<g filter="url(#filter0_i_67_542)">
<path d="M15.7713 6.14119C16.0946 9.21146 13.9028 11.8953 10.8757 12.1357C7.84867 12.3761 5.13271 10.0821 4.80945 7.01182C4.48619 3.94155 6.67804 1.25771 9.70508 1.0173C12.7321 0.776879 15.4481 3.07093 15.7713 6.14119Z" fill="#D9D9D9"/>
<path d="M20 20.938C20 17.752 19.4571 14.566 13.4857 14.566H7.24286C3.17143 14.566 1 15.8935 1 20.938C1 21.5245 1.48607 22 2.08568 22L18.9143 22C19.5139 22 20 21.5245 20 20.938Z" fill="#D9D9D9"/>
</g>
<path d="M15.7713 6.14119C16.0946 9.21146 13.9028 11.8953 10.8757 12.1357C7.84867 12.3761 5.13271 10.0821 4.80945 7.01182C4.48619 3.94155 6.67804 1.25771 9.70508 1.0173C12.7321 0.776879 15.4481 3.07093 15.7713 6.14119Z" stroke="#D9D9D9" stroke-linecap="round"/>
<path d="M20 20.938C20 17.752 19.4571 14.566 13.4857 14.566H7.24286C3.17143 14.566 1 15.8935 1 20.938C1 21.5245 1.48607 22 2.08568 22L18.9143 22C19.5139 22 20 21.5245 20 20.938Z" stroke="#D9D9D9" stroke-linecap="round"/>
<defs>
<filter id="filter0_i_67_542" x="0.5" y="0.5" width="20" height="26" filterUnits="userSpaceOnUse" color-interpolation-filters="sRGB">
<feFlood flood-opacity="0" result="BackgroundImageFix"/>
<feBlend mode="normal" in="SourceGraphic" in2="BackgroundImageFix" result="shape"/>
<feColorMatrix in="SourceAlpha" type="matrix" values="0 0 0 0 0 0 0 0 0 0 0 0 0 0 0 0 0 0 127 0" result="hardAlpha"/>
<feOffset dy="4"/>
<feGaussianBlur stdDeviation="2"/>
<feComposite in2="hardAlpha" operator="arithmetic" k2="-1" k3="1"/>
<feColorMatrix type="matrix" values="0 0 0 0 0 0 0 0 0 0 0 0 0 0 0 0 0 0 0.25 0"/>
<feBlend mode="normal" in2="shape" result="effect1_innerShadow_67_542"/>
</filter>
</defs>
</svg>
