<svg width="28" height="31" viewBox="0 0 28 31" fill="none" xmlns="http://www.w3.org/2000/svg">
<g filter="url(#filter0_d_67_543)">
<path d="M21.7841 3.00735L21.7841 2.50735L21.7841 3.00735ZM23 4.18179L22.5 4.18179L22.5 4.18179L23 4.18179ZM5 4.18179L4.5 4.18179V4.18179L5 4.18179ZM6.21592 3.00735L6.21592 3.50735L6.21592 3.00735ZM21.7841 21.979L21.7841 21.479H21.7841V21.979ZM23 20.8045L23.5 20.8045L23.5 20.8045L23 20.8045ZM9.21408 19.0819L9.71408 19.0819L9.71408 19.0819L9.21408 19.0819ZM7.99679 17.9074L7.99679 18.4074L7.99733 18.4074L7.99679 17.9074ZM5.4682 18.3648L5.12012 18.7238L5.4682 18.3648ZM10.7395 21.979L10.7395 22.479H10.7395V21.979ZM8.10643 20.919L7.75914 21.2787L7.75914 21.2787L8.10643 20.919ZM5.61017 8.52941C5.33403 8.52941 5.11017 8.75327 5.11017 9.02941C5.11017 9.30555 5.33403 9.52941 5.61017 9.52941V8.52941ZM22.8475 9.52941C23.1236 9.52941 23.3475 9.30555 23.3475 9.02941C23.3475 8.75327 23.1236 8.52941 22.8475 8.52941V9.52941ZM10.0775 5.44081C10.0775 5.71695 10.3013 5.94081 10.5775 5.94081C10.8536 5.94081 11.0775 5.71695 11.0775 5.44081H10.0775ZM11.0775 1C11.0775 0.723858 10.8536 0.5 10.5775 0.5C10.3013 0.5 10.0775 0.723858 10.0775 1H11.0775ZM17.3995 5.44081C17.3995 5.71695 17.6234 5.94081 17.8995 5.94081C18.1757 5.94081 18.3995 5.71695 18.3995 5.44081H17.3995ZM18.3995 1C18.3995 0.723858 18.1757 0.5 17.8995 0.5C17.6234 0.5 17.3995 0.723858 17.3995 1H18.3995ZM10.4915 12.5441C10.2154 12.5441 9.99152 12.768 9.99152 13.0441C9.99152 13.3203 10.2154 13.5441 10.4915 13.5441V12.5441ZM10.6441 13.5441C10.9202 13.5441 11.1441 13.3203 11.1441 13.0441C11.1441 12.768 10.9202 12.5441 10.6441 12.5441V13.5441ZM10.4915 15.9412C10.2154 15.9412 9.99152 16.165 9.99152 16.4412C9.99152 16.7173 10.2154 16.9412 10.4915 16.9412V15.9412ZM10.6441 16.9412C10.9202 16.9412 11.1441 16.7173 11.1441 16.4412C11.1441 16.165 10.9202 15.9412 10.6441 15.9412V16.9412ZM14.1525 12.5441C13.8764 12.5441 13.6525 12.768 13.6525 13.0441C13.6525 13.3203 13.8764 13.5441 14.1525 13.5441V12.5441ZM14.3051 13.5441C14.5812 13.5441 14.8051 13.3203 14.8051 13.0441C14.8051 12.768 14.5812 12.5441 14.3051 12.5441V13.5441ZM14.1525 15.9412C13.8764 15.9412 13.6525 16.165 13.6525 16.4412C13.6525 16.7173 13.8764 16.9412 14.1525 16.9412V15.9412ZM14.3051 16.9412C14.5812 16.9412 14.8051 16.7173 14.8051 16.4412C14.8051 16.165 14.5812 15.9412 14.3051 15.9412V16.9412ZM17.8136 12.5441C17.5374 12.5441 17.3136 12.768 17.3136 13.0441C17.3136 13.3203 17.5374 13.5441 17.8136 13.5441V12.5441ZM17.9661 13.5441C18.2422 13.5441 18.4661 13.3203 18.4661 13.0441C18.4661 12.768 18.2422 12.5441 17.9661 12.5441V13.5441ZM17.8136 15.9412C17.5374 15.9412 17.3136 16.165 17.3136 16.4412C17.3136 16.7173 17.5374 16.9412 17.8136 16.9412V15.9412ZM17.9661 16.9412C18.2422 16.9412 18.4661 16.7173 18.4661 16.4412C18.4661 16.165 18.2422 15.9412 17.9661 15.9412V16.9412ZM21.7841 21.479H10.7395V22.479H21.7841V21.479ZM5.5 17.2519L5.5 4.18179L4.5 4.18179L4.5 17.2519L5.5 17.2519ZM6.21592 3.50735L21.7841 3.50735L21.7841 2.50735L6.21592 2.50735L6.21592 3.50735ZM22.5 4.18179L22.5 20.8045L23.5 20.8045L23.5 4.18179L22.5 4.18179ZM21.7841 3.50735C22.196 3.50735 22.5 3.82552 22.5 4.18179L23.5 4.18179C23.5 3.24081 22.7153 2.50735 21.7841 2.50735L21.7841 3.50735ZM5.5 4.18179C5.5 3.82552 5.80403 3.50735 6.21592 3.50735L6.21592 2.50735C5.28474 2.50735 4.5 3.24081 4.5 4.18179L5.5 4.18179ZM8.45372 20.5593C7.5954 19.7306 6.44876 18.6192 5.81628 18.0059L5.12012 18.7238C5.75261 19.3371 6.89996 20.4492 7.75914 21.2787L8.45372 20.5593ZM21.7841 22.479C22.7153 22.479 23.5 21.7455 23.5 20.8045L22.5 20.8045C22.5 21.1608 22.196 21.479 21.7841 21.479L21.7841 22.479ZM8.71408 19.0819L8.71408 22L9.71408 22L9.71408 19.0819L8.71408 19.0819ZM5 18.4074L7.99679 18.4074L7.99679 17.4074L5 17.4074L5 18.4074ZM9.71408 19.0819C9.71408 18.1401 8.92814 17.4064 7.99624 17.4074L7.99733 18.4074C8.40957 18.407 8.71408 18.7253 8.71408 19.0819L9.71408 19.0819ZM4.5 17.2519C4.5 17.8062 4.72147 18.3372 5.12012 18.7238L5.81628 18.0059C5.6145 17.8102 5.5 17.5393 5.5 17.2519L4.5 17.2519ZM10.7395 21.479C10.4004 21.479 9.95922 21.3813 9.52196 21.2057C9.08458 21.0301 8.69849 20.7956 8.45372 20.5593L7.75914 21.2787C8.12401 21.631 8.63322 21.9265 9.14936 22.1337C9.66561 22.341 10.2362 22.479 10.7395 22.479L10.7395 21.479ZM5.61017 9.52941H22.8475V8.52941H5.61017V9.52941ZM11.0775 5.44081V1H10.0775V5.44081H11.0775ZM18.3995 5.44081V1H17.3995V5.44081H18.3995ZM10.4915 13.5441H10.6441V12.5441H10.4915V13.5441ZM10.4915 16.9412H10.6441V15.9412H10.4915V16.9412ZM14.1525 13.5441H14.3051V12.5441H14.1525V13.5441ZM14.1525 16.9412H14.3051V15.9412H14.1525V16.9412ZM17.8136 13.5441H17.9661V12.5441H17.8136V13.5441ZM17.8136 16.9412H17.9661V15.9412H17.8136V16.9412Z" fill="#00278C"/>
</g>
<defs>
<filter id="filter0_d_67_543" x="0.5" y="0.5" width="27" height="29.979" filterUnits="userSpaceOnUse" color-interpolation-filters="sRGB">
<feFlood flood-opacity="0" result="BackgroundImageFix"/>
<feColorMatrix in="SourceAlpha" type="matrix" values="0 0 0 0 0 0 0 0 0 0 0 0 0 0 0 0 0 0 127 0" result="hardAlpha"/>
<feOffset dy="4"/>
<feGaussianBlur stdDeviation="2"/>
<feComposite in2="hardAlpha" operator="out"/>
<feColorMatrix type="matrix" values="0 0 0 0 0 0 0 0 0 0 0 0 0 0 0 0 0 0 0.25 0"/>
<feBlend mode="normal" in2="BackgroundImageFix" result="effect1_dropShadow_67_543"/>
<feBlend mode="normal" in="SourceGraphic" in2="effect1_dropShadow_67_543" result="shape"/>
</filter>
</defs>
</svg>
